<svg width="75" height="68" viewBox="0 0 75 68" fill="none" xmlns="http://www.w3.org/2000/svg">
<path d="M2.1875 34.4479L1.9375 34.3338C1.375 34.0485 0.9375 33.6205 0.625 33.0785C0.1875 32.3368 0 31.6521 0 30.9389L0.0625 30.568C0.0625 29.9975 0.21875 29.4839 0.5 28.999L0.75 28.571C0.875 28.3428 1.0625 28.1431 1.21875 27.9434C1.40625 27.7437 1.4375 27.487 1.375 27.2587L1.21875 26.8023C1.03125 26.2317 0.90625 25.6612 0.90625 25.0906L0.8125 24.7483C0.8125 24.1206 1 23.493 1.4375 23.0366L1.75 22.6657C1.96875 22.3804 2.3125 22.2092 2.6875 22.0951C3 22.0095 3.21875 21.7243 3.25 21.3819L3.3125 20.412C3.3125 19.6417 3.71875 18.9285 4.34375 18.415L5.09375 17.9015C5.25 17.7588 5.40625 17.6162 5.53125 17.388C5.6875 17.2168 5.71875 16.9886 5.6875 16.8174C5.625 16.5321 5.6875 16.4465 5.84375 16.418C6.34375 16.5892 6.65625 16.5321 6.875 16.3039L7.28125 15.8189L8.40625 14.6778C8.71875 14.3925 8.84375 13.879 8.65625 13.4796L8.28125 12.7379C8.21875 12.5667 8.28125 12.367 8.4375 12.3099C8.84375 12.3099 9.125 12.4526 9.25 12.6808L9.375 12.8805C9.5625 13.2228 10 13.394 10.3125 13.2514C11 13.0231 11.5625 12.9661 12.0938 12.9661H13.0938C13.7812 12.9661 14.3438 12.5382 14.4688 11.882C14.5938 11.0832 14.9062 10.4556 15.3438 10.0277C15.8125 9.5427 16.3438 9.17183 16.9688 8.88655C17.7812 8.48715 18.2812 7.91659 18.4375 7.17486C18.6562 6.26195 19.1875 5.6058 19.9062 5.17788L22.2812 3.95116L22.9688 3.5803C23.375 3.35207 23.75 3.06679 24.0625 2.72445L24.6875 2.03977C25 1.75449 25.3125 1.55479 25.6875 1.4692C26 1.38362 26.4375 1.32656 26.8125 1.35509L28.0625 1.44068C28.6875 1.44068 29.1875 1.58332 29.6875 1.78302L30 1.92566C30.3125 2.03977 30.625 1.98271 30.7812 1.78302L31.0625 1.64037L32.4062 0.356603C32.7188 0.0713206 33.0938 -0.0427924 33.5 0.0142641C33.9062 0.0713206 34.3125 0.213962 34.6875 0.385131C35.25 0.670414 35.7188 0.784527 36.25 0.784527H36.5625C37.25 0.784527 37.9375 0.870112 38.625 1.01275L39.0938 1.12687C39.5625 1.24098 40.0312 1.06981 40.3438 0.72747C40.4375 0.584829 40.6562 0.556301 40.7812 0.670414C40.875 0.72747 40.9062 0.784527 40.9375 0.870112C41 1.44068 41.375 1.8686 41.875 2.01124L42.375 2.15388C42.9062 2.29652 43.375 2.61033 43.6875 3.00973C44 3.43765 44.375 3.86558 44.8125 4.15086L45.125 4.43614C45.4375 4.72143 45.875 4.83554 46.3125 4.80701H48.1562C48.9062 4.80701 49.625 4.92112 50.344 5.20641C51.0315 5.49169 51.75 5.54874 52.4065 5.32052C53.094 5.12082 53.8125 5.03524 54.5315 5.12082L55.875 5.32052C56.5 5.37758 57.125 5.66286 57.5 6.09078L57.6565 6.23342C57.969 6.51871 58.281 6.88957 58.5935 7.28897C58.781 7.65984 59.219 7.85953 59.6565 7.85953H61.594C62.0625 7.85953 62.5315 7.94512 62.9065 8.14482C63.3125 8.4301 63.6565 8.71538 63.969 9.00066L64.281 9.37153C64.656 9.77093 64.8435 10.313 64.8125 10.8835C64.8125 11.34 65.1875 11.7394 65.6875 11.7394L66.3125 11.7964C66.75 11.7964 67.125 12.0817 67.344 12.4526L67.656 13.0231L68.4685 14.6778C68.5935 14.9631 68.625 15.2484 68.594 15.4766C68.594 15.7619 68.6875 15.9901 68.9065 16.1042L69.2185 16.3039C69.625 16.5892 69.8435 17.0171 69.781 17.5021L69.5625 18.8429L69.5 19.4135C69.4375 19.6988 69.594 20.0696 69.875 20.2693C70.344 20.5546 70.5625 20.9255 70.594 21.3534V21.924C70.594 22.2092 70.531 22.5516 70.281 22.7798C70.0935 23.008 69.969 23.2933 69.969 23.6357L70.0625 24.2918C70.0625 24.7483 70.375 25.1477 70.6875 25.4329C71.125 25.7182 71.375 26.1747 71.4375 26.6311C71.5625 27.3443 71.5935 27.9149 71.5935 28.4855V29.1416C71.5935 29.3698 71.594 29.5981 71.6875 29.8263C71.75 30.026 71.906 30.2257 72.0935 30.3398L72.719 30.7677C73.344 31.1386 73.7815 31.6236 74.0315 32.2797C74.344 32.9073 74.4375 33.5635 74.4375 34.2196V34.4479C74.4375 34.9614 74.375 35.5034 74.1875 35.9884C74.031 36.5019 74.0625 36.9869 74.2815 37.4148C74.5315 37.8142 74.6875 38.2706 74.75 38.7556C74.875 39.3262 74.8125 39.8968 74.594 40.3532L74.5315 40.5529C74.375 40.8952 74.125 41.2091 73.8125 41.4658C73.5 41.7511 73.1875 41.9223 73 42.122C72.8125 42.2931 72.6875 42.5784 72.7815 42.8352L72.875 43.2346C73.031 43.8051 73.031 44.3757 72.875 44.8892V45.1174C72.75 45.5451 72.5625 45.9162 72.375 46.2586C72.156 46.6292 71.844 46.9145 71.4375 47.1144L70.969 47.3997C70.75 47.5138 70.594 47.7703 70.594 48.0273C70.594 48.3126 70.4685 48.5979 70.281 48.769L69.8125 49.3396C69.5 49.7102 69.094 50.0243 68.6565 50.1955C68.219 50.4807 67.844 50.766 67.5625 51.0513C67.25 51.3936 67 51.793 66.875 52.1924C66.75 52.7059 66.3125 52.9912 65.8435 52.9912H64.1565C63.719 52.9912 63.3125 53.2765 63.125 53.6188C62.9065 54.0753 62.6875 54.3889 62.4065 54.6742C62.094 54.9594 61.9065 55.3018 61.7815 55.7012C61.719 56.0435 61.4065 56.2717 61.094 56.1576C60.6875 55.9865 60.2815 56.1576 60.094 56.4429C59.719 57.0135 59.344 57.4416 58.9375 57.8123L58.719 57.9834C58.3125 58.2687 57.7815 58.4969 57.3125 58.4969C56.75 58.4969 56.469 58.7252 56.375 59.0675C56.2815 59.3528 56.219 59.7239 56.1875 60.0375C56.125 60.3798 56 60.6939 55.875 60.9791L55.7185 61.1503C55.406 61.578 55.1565 62.0062 54.844 62.3768L54.719 62.548C54.3125 63.0332 53.7815 63.4038 53.1565 63.5467C52.4065 63.7749 51.75 63.832 51.094 63.832H50.6565C50.344 63.832 50.031 64.0031 49.8125 64.2884L49.625 64.5737L49.4375 64.916L49.0312 65.5437C48.7188 66.0572 48.25 66.3995 47.625 66.5707C47 66.7131 46.2812 66.7701 45.625 66.7418L45.125 66.6848C44.6875 66.6848 44.2812 66.5707 43.875 66.3995C43.5625 66.2854 43.125 66.3995 42.9375 66.6848C42.625 67.0842 42.25 67.3124 41.8438 67.4265L40.9062 67.7118C40.2812 67.8542 39.5938 67.8542 38.9375 67.7118L38.4375 67.5689C38.125 67.5689 37.8125 67.4265 37.5625 67.2837C37.25 67.1412 36.9375 67.0842 36.625 67.1125L36.2188 67.1695C35.5938 67.2266 35.0312 67.1695 34.4688 67.0271L33.625 66.856C33.25 66.7418 32.9062 66.5136 32.6875 66.1996C32.5312 65.9143 32.1875 65.6861 31.75 65.629H30.75C30.125 65.5437 29.5625 65.3437 29.1875 64.916L27.9375 63.832L27.5 63.4896L26.8125 63.0332L26.4062 62.7479C25.9375 62.4626 25.375 62.2344 24.7812 62.1773L22.9062 61.892C22.7188 61.892 22.5938 61.835 22.4062 61.8062L21.6875 61.6638C21.375 61.6068 21.0625 61.3785 20.8438 61.0933C20.6562 60.808 20.3125 60.6939 20 60.808C19.375 61.0362 18.875 61.0932 18.375 61.1786H17.9375C17.125 61.2357 16.375 61.1215 15.625 60.808C14.875 60.5227 14.375 60.0945 13.9062 59.5527C13.5312 59.0675 12.9688 58.6969 12.2812 58.5828L11.4062 58.4116C10.7812 58.2975 10.1562 58.0693 9.59375 57.7269C8.96875 57.3275 8.65625 56.9564 8.40625 56.5C8.15625 56.0723 8 55.5871 7.96875 55.0736V54.8453C7.90625 54.2748 7.46875 53.7613 6.875 53.6188C6.15625 53.4189 5.625 53.1336 5.15625 52.763C4.71875 52.3919 4.46875 51.8501 4.46875 51.2795L4.53125 50.0243C4.53125 49.5391 4.375 49.1114 4 48.7973C3.625 48.455 3.375 48.0273 3.375 47.5709L3.28125 46.5438C3.21875 45.8021 3.0625 45.0604 2.875 44.3186C2.6875 43.6625 2.96875 43.0063 3.5625 42.6925L3.78125 42.5499C4.09375 42.3502 4.21875 41.9793 4.03125 41.637L3.78125 41.3517C3.46875 41.0664 3.15625 40.8667 2.84375 40.7811C2.59375 40.7241 2.53125 40.4959 2.53125 40.3532L2.84375 40.0109C3.03125 39.8112 3 39.4974 2.84375 39.3262C2.59375 39.098 2.46875 38.8127 2.4375 38.5274L2.375 36.5304C2.375 36.131 2.4375 35.7316 2.5625 35.3322C2.6875 34.9899 2.5625 34.5905 2.1875 34.4193V34.4479ZM33.125 30.6821C33.3438 30.4824 33.3125 30.1116 33.125 29.9689C32.8125 29.7407 32.5938 29.4839 32.4062 29.1987L32.0938 28.7422C31.875 28.3713 31.5938 28.0575 31.2812 27.7723L31.2188 27.7152C30.9062 27.487 30.6875 27.2017 30.5 26.8593C30.3438 26.5741 30.3438 26.2888 30.5 26.0035L30.6875 25.7182C30.875 25.4329 31 25.0335 31 24.6912V24.5771C31 24.2918 30.875 24.0065 30.6875 23.7212C30.5625 23.493 30.4375 23.2077 30.375 22.9224V22.7513C30.2812 22.4089 30.375 22.0381 30.625 21.7528C30.875 21.3819 31.0625 21.0396 31.1562 20.6117V20.5546C31.2812 20.2693 31.2188 19.8985 31.0312 19.6132C30.8438 19.3279 30.7812 19.0426 30.9062 18.7003L31.125 18.1297C31.3125 17.6162 31.5938 17.1597 31.9688 16.7603L32.4062 16.3324L32.7188 15.9901L32.9062 15.8189C33.0938 15.6477 33.125 15.3625 32.9688 15.1342C32.8125 14.849 32.7188 14.5637 32.7812 14.2784L32.8438 13.879C32.9375 13.3084 33.1562 12.7379 33.5625 12.2814L33.6875 12.1673C34.1562 11.5967 34.75 11.2259 35.4375 11.0262L36.2812 10.7409C36.6562 10.6268 36.9062 10.2559 36.9062 9.88504C36.9062 9.42859 37.0625 9.02919 37.3438 8.65832L37.5 8.51568C37.8125 8.0307 38.1875 7.54572 38.4375 7.03221L38.6562 6.66135C38.7188 6.57576 38.75 6.46165 38.75 6.37606C38.75 5.89108 38.4375 5.46316 37.9375 5.43463L36.5625 5.34905C35.7812 5.29199 35 5.34905 34.25 5.34905L31.5938 5.63433C31.1875 5.63433 30.875 5.91961 30.8438 6.31901C30.8438 6.7184 30.5312 7.06074 30.1562 7.17486L29.0312 7.46014L28.7188 7.54572L27.7812 7.831C27.0938 8.0307 26.5312 8.48715 26.2188 9.11478L25.9688 9.48564C25.6562 10.1133 25.125 10.6268 24.4688 10.9976C23.8438 11.3685 23.5312 11.9676 23.4688 12.6523V12.9376C23.4062 13.5081 23.2188 14.0787 22.8438 14.4781L22.6875 14.7063C22.4375 14.9916 22.375 15.3625 22.5312 15.6763C22.6875 16.0186 22.7812 16.3895 22.75 16.7603V18.2723C22.75 18.6717 22.4375 19.0141 22.125 19.1282C21.6875 19.2708 21.4062 19.5846 21.2812 19.984L21.125 20.5546C21 21.1252 21.2188 21.6957 21.75 22.0381C22.25 22.3804 22.5625 22.8939 22.6875 23.5215V24.0351C22.7812 24.6056 23.125 25.1762 23.6875 25.4615C24.25 25.8038 24.6875 26.3173 24.9375 26.8879L25.0938 27.3443C25.3438 27.972 25.9062 28.3428 26.5312 28.3999H26.7188C27.2812 28.3999 27.7812 28.6852 28.0938 29.1416C28.4062 29.5981 28.9062 29.9119 29.4688 29.9975L30.3438 30.2257C30.875 30.3683 31.375 30.6251 31.7812 30.9959L31.8438 31.053C32.1562 31.2812 32.6562 31.2527 32.9375 30.9389L33.1562 30.7107L33.125 30.6821ZM36.6875 28.0575C37 28.2287 37.3125 28.1431 37.4375 27.8864L37.5312 27.7437C37.75 27.3443 38.0312 26.9449 38.3438 26.6026L38.9688 25.7467C39.0625 25.7467 39.0938 25.6897 39.125 25.6326L39.875 24.7197C40.1875 24.4344 40.5625 24.2347 41 24.2347C41.4062 24.2347 41.75 24.0351 41.9375 23.6642C42.0625 23.2648 42.25 22.8939 42.625 22.5801L42.7812 22.4089C43.0938 22.1237 43.4062 21.981 43.7188 21.8384C44.125 21.7813 44.5 21.7243 44.875 21.7243H45.8125C46.1875 21.7243 46.5 21.5816 46.6875 21.2963C46.875 21.0111 47.1562 20.8114 47.4688 20.6687L47.7812 20.5546C48.2812 20.3549 48.8438 20.2123 49.4062 20.1552L50.0315 20.0982C50.4065 20.0982 50.8125 20.0982 51.1875 20.2978C51.5 20.4975 51.9065 20.469 52.219 20.2408L52.4375 20.1267C52.9065 19.8414 53.4375 19.6132 54 19.5561H54.0625C54.6875 19.442 55.25 19.442 55.875 19.4705H56.1875C56.8125 19.5561 57.344 19.7558 57.75 20.1837L57.844 20.2978C58.1565 20.5831 58.656 20.8114 59.0935 20.8114H59.625C59.781 20.8114 59.9375 20.7543 60.0315 20.6117C60.125 20.5261 60.2815 20.4405 60.4375 20.4405H60.75C61.1875 20.4405 61.594 20.5546 62 20.6687L62.5315 20.8684C63.0315 21.0111 63.5625 21.1537 64.094 21.2108H64.469C64.719 21.2108 64.875 21.0681 64.875 20.8684C64.875 20.5831 64.8125 20.2978 64.6565 20.0696L64.4375 19.6132C64.1875 19.2423 64 18.8429 63.8125 18.472L63.75 18.3294C63.5935 18.0441 63.5935 17.7588 63.75 17.4736V17.3309C63.8125 17.1027 63.6875 16.8459 63.4375 16.7603H63.1875C62.6875 16.6177 62.25 16.361 61.9375 15.9901L61.625 15.7048C61.3125 15.4195 61.125 14.9916 61 14.5637C60.844 14.1928 60.5 13.9075 60.0625 13.9075H58.75C58.2815 13.8505 57.875 13.6222 57.594 13.2799L57.469 13.1373C57.25 12.852 57.0625 12.5096 56.9375 12.1673C56.7815 11.882 56.4375 11.7108 56.125 11.7964L55.75 11.9105C55.125 12.1102 54.5 12.1958 53.875 12.1388L53.375 12.0817C52.8435 12.0817 52.344 11.882 51.9375 11.5967L51.625 11.397C51.375 11.2259 51.125 11.1118 50.844 10.9976C50.5315 10.8835 50.2815 10.9406 50.094 11.1403L49.9375 11.3115C49.625 11.5967 49.1875 11.825 48.75 11.882L47.0625 11.9676C46.75 11.9676 46.4375 12.1102 46.2188 12.3099C45.9688 12.5096 45.6875 12.6523 45.375 12.7093H45.3125C45 12.7093 44.6875 12.909 44.375 13.1087V13.1658C44.0625 13.4511 43.6562 13.5937 43.25 13.5937L43.125 13.6508C42.75 13.6508 42.375 13.6508 42 13.7364H41.625C41.0938 13.8219 40.6875 14.2213 40.5625 14.7348L40.4375 15.391C40.3438 15.8474 40.125 16.2468 39.8125 16.6177C39.5 16.96 39.125 17.1883 38.6562 17.1883H38.1875H38.125C37.8125 17.2453 37.5 17.5591 37.5625 17.9015C37.625 18.3865 37.5625 18.8144 37.4688 19.2423L37.3438 19.7273C37.2188 20.1552 36.9062 20.4975 36.5 20.6402L36.3125 20.7258H36.25C36.0625 20.8399 35.9375 21.0966 36.0938 21.2963C36.2812 21.5816 36.3438 21.8669 36.3125 22.1522L36.2188 23.0651C36.2188 23.4074 36.0625 23.7212 35.9062 24.0065C35.7188 24.2918 35.7188 24.5771 35.8438 24.8624L36.1562 25.49C36.3125 25.7753 36.3438 26.0606 36.25 26.4029C36.1562 26.6882 36.0938 26.9735 36.125 27.2587C36.125 27.544 36.3125 27.8293 36.5625 27.9434L36.625 28.0005L36.6875 28.0575ZM61.375 48.6832C61.6875 48.9685 62.1565 49.0826 62.5315 48.8544L63.1565 48.4838C63.469 48.2838 63.719 47.9986 63.844 47.6279V47.5709L64.1565 46.715L64.344 46.4297L64.469 46.1444L64.594 45.9445C64.719 45.7163 64.9065 45.5451 65.219 45.4598L65.3435 45.4027C65.5935 45.3457 65.75 45.1174 65.75 44.8892C65.75 44.6039 65.9065 44.3757 66.0625 44.176L66.3125 43.9763L66.9375 43.2346V43.1775C67.125 42.9493 67.25 42.6925 67.3125 42.4072C67.375 42.122 67.3125 41.8367 67.1875 41.5514L67.125 41.4373C67 41.152 66.9375 40.9523 66.906 40.6955L66.8125 39.8968L66.719 39.0409C66.719 38.7556 66.844 38.4703 67.0315 38.1851C67.25 37.9568 67.4065 37.6716 67.5315 37.3863V37.2722L67.594 37.2151C67.6565 36.9298 67.5 36.6445 67.219 36.6445C66.9065 36.5019 66.594 36.2737 66.5 35.9313L66.4065 35.7602C66.25 35.2467 66.1565 34.7331 66.1565 34.2196L66.219 32.7932V32.7076C66.219 32.2227 65.7815 31.8518 65.2815 31.8518H65.219C64.594 31.8518 64.094 31.6806 63.6565 31.2812L63.4065 30.9959L62.7815 30.3398L61.9685 29.4839C61.656 29.0846 61.3435 28.7422 60.9375 28.3999C60.625 28.1146 60.1565 27.8293 59.6875 27.7723L59.0625 27.6867C58.75 27.6296 58.344 27.487 58 27.2873C57.75 27.1161 57.375 27.1732 57.125 27.4014L56.7185 27.8008L56.5315 27.9149C56.3125 27.972 56.094 27.8578 56 27.6296C55.875 27.2873 55.875 26.8879 56.0625 26.5455V26.3744C56.0625 26.1747 55.875 26.032 55.6875 26.0891H55.1875C54.625 26.0891 54.0625 26.032 53.5315 25.8038L53.219 25.6897C52.9065 25.547 52.5315 25.4615 52.1875 25.4615C51.875 25.4615 51.5625 25.5185 51.25 25.6897L51.125 25.7753C50.75 26.0035 50.3125 26.1176 49.875 26.1461H48.8438C48.375 26.1461 47.9062 26.2888 47.5938 26.517C47.1875 26.7452 46.75 26.8879 46.2812 26.9735L45.4375 27.0876C45.0625 27.1732 44.6562 27.3158 44.3125 27.5726C44 27.8578 43.5625 28.029 43.1562 28.1431L43 28.2002C42.5 28.3428 42.0625 28.6281 41.75 29.056L41.375 29.3984C41.1562 29.6836 41.1562 30.026 41.375 30.3113C41.5625 30.5965 41.9375 30.6821 42.3125 30.5965L42.7812 30.4254C43.0312 30.3398 43.3125 30.4254 43.5312 30.5395C43.7188 30.6821 44 30.7677 44.2812 30.7392L45.0625 30.6536C45.5 30.6536 45.9375 30.6536 46.375 30.7677C46.8438 30.9104 47.25 31.053 47.625 31.3383C48 31.6236 48.4062 31.7377 48.875 31.7947C49.3438 31.8518 49.8125 31.9374 50.25 32.08L50.5625 32.1371C50.875 32.2227 51.125 32.4224 51.3125 32.7076C51.469 32.9359 51.625 33.2782 51.625 33.5635V33.6491C51.625 33.9914 51.9375 34.2196 52.25 34.2196H52.4375C52.9375 34.2196 53.469 34.2767 54 34.4193L54.219 34.5049C54.5315 34.619 54.844 34.7902 55.0625 35.0755C55.3125 35.3608 55.469 35.646 55.5625 35.9313L55.6565 36.3307C55.75 36.7587 55.7815 37.1866 55.7815 37.643V37.7857C55.7815 38.0709 56 38.3562 56.344 38.4703C56.6565 38.5274 57.0315 38.6415 57.375 38.8127L57.531 38.8697C57.9375 39.098 58.344 39.3833 58.6565 39.7256L58.8125 39.9253C59.2185 40.3532 59.4375 40.8952 59.4375 41.4373V41.637C59.4375 42.0649 59.344 42.4928 59.1875 42.8922C59.0625 43.2346 59.1875 43.634 59.5935 43.7481L59.8125 43.8907C60.2815 44.0619 60.6875 44.3757 61 44.7466C61.3125 45.1745 61.4375 45.6592 61.4375 46.1727V47.0286C61.375 47.3139 61.2815 47.5421 61.125 47.742C60.969 47.9415 60.969 48.2268 61.125 48.4267L61.3125 48.712L61.375 48.6832ZM41.375 34.077H41.3125C41.1875 34.077 41.125 34.2196 41.1562 34.3623L41.2812 34.9328C41.4062 35.3893 41.4688 35.8457 41.5312 36.3022C41.5938 36.7587 41.8438 37.158 42.2188 37.4433H42.3438C42.8125 37.7857 43.0938 38.2992 43.125 38.8127V40.2391C43.0625 40.5244 43.125 40.8097 43.3125 41.0379L43.4688 41.1805C43.7812 41.5229 43.9062 41.9223 43.9375 42.3217L44.0312 43.8907C44.0312 44.2616 43.7812 44.5754 43.4062 44.6325L43.0938 44.6895C42.875 44.6895 42.7812 44.9177 42.7812 45.1174C42.7812 45.3457 42.875 45.6022 42.9688 45.8304V45.8875C43.0625 46.1727 43.0938 46.458 43.0625 46.7433L42.9375 47.5138C42.8125 48.0844 42.625 48.5979 42.3125 49.1114L42.0938 49.4537C41.9375 49.739 41.7188 49.9102 41.4688 50.0243C41.1562 50.1384 40.9375 50.3666 40.8438 50.6519L40.5938 51.6789C40.4375 52.2495 40.1562 52.8201 39.7812 53.3906H39.7188C39.3438 53.8471 38.875 54.2465 38.3125 54.5317L37.9375 54.76L37 55.1877C36.6875 55.3018 36.5 55.5588 36.4375 55.8723L36.2812 56.814C36.1875 57.3846 35.9688 57.8693 35.5312 58.2404L35.125 58.6681L34.6562 59.0963L34.1875 59.5527C33.8125 59.9521 33.25 60.1233 32.625 60.0375L31.5 59.838L30.4688 59.7239H30.1875C30.0625 59.838 30.0312 60.0092 30.125 60.1803C30.3438 60.5227 30.6875 60.7509 31.0625 60.7509L31.75 60.865C32.0625 60.865 32.4375 61.0074 32.75 61.1503C33.0625 61.3498 33.375 61.4926 33.75 61.578H33.8125C34.2188 61.7209 34.6562 61.7492 35.0625 61.7209L35.5312 61.6638C36.0625 61.6068 36.5625 61.6638 37 61.835L37.375 61.9491C37.5312 62.0062 37.7812 61.9491 37.9375 61.8062C38.125 61.6351 38.3125 61.5209 38.5625 61.4356L38.8125 61.3785C39.2188 61.2644 39.625 61.2074 40.0625 61.2074H40.3125C40.6875 61.2074 41.0312 61.2644 41.3438 61.4356L41.4688 61.4926C41.6875 61.578 41.9375 61.4926 42.0938 61.3215C42.1875 61.1215 42.4062 60.9221 42.625 60.7509L43.4062 60.2657L43.9062 59.9804L44.1562 59.838C44.4688 59.6381 44.9062 59.5527 45.2812 59.5527L46.4062 59.4669C46.8438 59.4099 47.2188 59.1246 47.3438 58.7252C47.4688 58.2975 47.6562 57.8693 47.9688 57.4987C48.2812 57.1276 48.5938 56.814 48.9062 56.5287C49.3125 56.2434 49.7188 56.1006 50.1565 56.0723H50.4065C50.9065 55.9865 51.281 55.5588 51.25 55.1023V55.0453V53.1907C51.3125 52.9054 51.4375 52.5348 51.625 52.2495L52.25 51.3936L52.5 51.1084C52.6875 50.9655 52.8125 50.766 53.0315 50.5378L53.3435 50.1667C53.531 49.8814 53.5315 49.5108 53.2815 49.2538C52.969 48.9685 52.8125 48.5691 52.75 48.1697V48.0556C52.6875 47.5992 52.6875 47.1144 52.8435 46.6292V46.4868C53 46.1157 53.219 45.745 53.469 45.4027C53.719 45.1174 53.6875 44.718 53.375 44.4898L52.8435 44.0619C52.406 43.7195 52.1565 43.206 52.094 42.6925L52.031 42.122C52.031 41.9508 52.0315 41.7511 51.969 41.5514L51.9065 41.1235C51.844 40.6385 51.5315 40.2676 51.094 39.9823L50.875 39.9253C50.5625 39.7541 50.25 39.4974 50 39.155C49.75 38.8697 49.625 38.4703 49.5312 38.0709L49.4375 37.586C49.4375 37.4148 49.3125 37.3007 49.125 37.2151L48.625 37.0725L47.625 36.7872C47.3125 36.7301 47 36.5019 46.7812 36.3022H46.7188C46.5312 36.074 46.2188 36.074 46.0312 36.2451L45.7188 36.5304C45.6562 36.616 45.5938 36.6445 45.5 36.616C45.3125 36.616 45.1875 36.4734 45.25 36.3307C45.3125 35.8743 45.125 35.4178 44.7188 35.1325L44.3125 34.8473L43.375 34.2767C43.125 34.1911 42.75 34.2767 42.625 34.562L42.5 34.7331C42.5 34.7902 42.4062 34.8187 42.375 34.8473C42.25 34.8473 42.0625 34.8473 42.0625 34.7046L41.9688 34.562C41.875 34.3908 41.6562 34.2767 41.4688 34.2196L41.375 34.077ZM37.625 36.9298L37.4688 36.7872C37.3125 36.6731 37.1562 36.7016 37 36.8442C36.7812 37.1866 36.5938 37.5574 36.5 37.9283V37.9854C36.4062 38.3562 36.0312 38.613 35.6562 38.5559H35.3438H35.2812C34.8438 38.5559 34.5 38.8983 34.5 39.2977C34.5 39.8112 34.3125 40.3247 33.9688 40.7241L33.7812 40.8952C33.4688 41.2661 33 41.5229 32.5312 41.6655L32.2812 41.7226C31.9688 41.8082 31.7188 42.0079 31.6562 42.3502C31.6562 42.6355 31.4688 42.9208 31.2188 43.149L30.9062 43.3772C30.5312 43.7481 29.9688 43.9478 29.4062 44.0048L27.8438 44.1475C27.3438 44.1475 26.9062 44.4328 26.5938 44.8607C26.2812 45.2886 25.8125 45.5739 25.3438 45.6309L24.6562 45.688C24.1562 45.745 23.625 45.745 23.0938 45.6309L22.7812 45.5739L21.9375 45.374C21.625 45.2886 21.375 45.374 21.1875 45.5739L20.875 45.9445C20.4688 46.3727 19.875 46.5721 19.3125 46.5151L17.2812 46.2869C16.9688 46.2869 16.7188 46.1444 16.4375 46.0016C16.125 45.8304 15.9062 45.6309 15.6875 45.431L14.9062 44.5754C14.8125 44.5183 14.6562 44.4898 14.5 44.5183L14.0625 44.6895L12.3125 45.0889C12 45.1745 11.5938 45.0889 11.2812 44.9177C10.9688 44.6895 10.5938 44.6325 10.2188 44.6325H9.8125C9.4375 44.718 9.1875 45.0889 9.3125 45.431L9.4375 46.0016C9.53125 46.2869 9.5 46.6292 9.34375 46.9145C9.1875 47.1998 9.21875 47.485 9.4375 47.7703L9.625 47.9986C9.875 48.3409 10.25 48.6262 10.5625 48.9115C10.875 49.1967 11.1875 49.482 11.4375 49.8531L11.9062 50.6231C12.1562 51.0225 12.5312 51.2508 13.0312 51.2508C13.5 51.2508 13.9688 51.3936 14.3438 51.6789L15.2812 52.4777C15.5312 52.6772 15.9062 52.7059 16.1562 52.5348L16.3125 52.4777C16.5 52.4777 16.625 52.5918 16.625 52.763V52.9054C16.625 53.2765 16.9375 53.6188 17.3438 53.7613L18.75 54.0465C19.25 54.1894 19.75 54.3318 20.2188 54.6171H20.4688C20.7188 54.6171 20.9375 54.4176 20.9062 54.1607V53.1624C20.9062 52.8771 21.0312 52.5918 21.2812 52.4777L21.4375 52.4207C21.5938 52.4777 21.75 52.5918 21.6875 52.7059V53.1907C21.6875 53.5618 21.8125 53.9041 22.0938 54.1607C22.4062 54.4459 22.8125 54.503 23.1562 54.3889C23.5312 54.2465 23.9062 54.2177 24.3125 54.2465L25.4688 54.3035C26.0312 54.3606 26.5625 54.3035 27.0312 54.1036C27.5938 53.9324 28.0625 53.7042 28.5 53.3906L28.6875 53.2765L29.625 52.506C29.9375 52.2207 30.3438 52.0783 30.7188 52.0783H31.9688C32.5938 52.0213 33.1562 51.5078 33.2188 50.9372L33.3438 50.3666C33.3438 49.9955 33.5312 49.6532 33.8125 49.3679C34.125 49.0826 34.4375 48.9115 34.75 48.7973L35.125 48.6549C35.6562 48.455 36.0625 48.0273 36.25 47.5138L36.4375 46.8291C36.5938 46.2586 36.9062 45.688 37.375 45.3169L37.4375 45.2601C37.8125 44.9748 37.875 44.4042 37.625 44.0048L37.5312 43.8051C37.3125 43.5198 37.2812 43.0919 37.4375 42.7211C37.5938 42.3217 37.75 41.9793 38 41.637L38.3125 41.2376C38.4375 41.0094 38.4375 40.667 38.25 40.4673C38.0625 40.2391 37.9375 39.9538 37.9375 39.6685L37.875 39.2691V38.2992C37.9375 38.0139 37.875 37.643 37.7812 37.3577L37.6562 37.0154L37.625 36.9298ZM33.1562 34.7617V34.6761C33.1562 34.3908 32.9688 34.2196 32.7188 34.2196H31.9062C31.5938 34.2767 31.2812 34.2767 31.0312 34.2196H29.625C28.9062 34.2196 28.2188 34.1055 27.5312 33.9344L26.7812 33.7632L26.1562 33.592L24.75 33.1641C24 32.9644 23.4375 32.5079 23.0938 31.8803L22.9375 31.595C22.7188 31.1671 22.25 30.9389 21.7812 31.0245C21.25 31.0245 20.7188 31.0245 20.2188 30.7962L19.8438 30.6536C19.125 30.3683 18.5938 29.7978 18.5938 29.0275L18.4688 28.2572C18.375 27.8578 18.0938 27.487 17.7188 27.3443C17.2812 27.1732 16.875 26.9449 16.4688 26.6882L16.3125 26.6026C15.8438 26.2603 15.4375 25.8038 15.2188 25.2618L15.1562 25.0906C15 24.6341 14.9688 24.1492 15.0938 23.6642L15.1562 23.493C15.2812 23.1221 15.3125 22.7513 15.3125 22.3519C15.3125 22.0095 15.1562 21.6672 14.875 21.4105L14.4375 21.0396C13.9375 20.6687 13.625 20.1267 13.5938 19.5276C13.5312 18.9 13.5312 18.3009 13.6562 17.7018V17.6162V17.5306C13.6562 17.1883 13.3438 16.96 13.0312 16.96H12.9375C12.5312 16.96 12.1875 17.1883 12 17.5306C11.8438 17.93 11.5938 18.2438 11.3125 18.5576L11.1875 18.7003L10.5625 19.2708L10.25 19.5561C9.9375 19.8414 9.75 20.2693 9.6875 20.6972C9.625 21.1252 9.5 21.5531 9.3125 21.9525L9.25 22.0951C9.09375 22.4375 8.84375 22.7513 8.53125 22.951C8.21875 23.1792 8 23.5215 8 23.8639L7.9375 25.1762C7.9375 25.7467 7.84375 26.3173 7.625 26.8879L7.5625 27.1161C7.40625 27.487 7.5625 27.8864 7.9375 28.0575L9.25 28.571L9.375 28.6281C9.46875 28.6281 9.5 28.6852 9.53125 28.7707C9.625 28.8849 9.53125 29.056 9.4375 29.056L9.125 29.1987C8.9375 29.2557 8.8125 29.4269 8.75 29.6266L8.6875 29.9119V29.9689L8.375 31.5665C8.3125 31.7947 8.3125 32.0515 8.3125 32.3082C8.3125 32.5365 8.46875 32.7362 8.6875 32.8218L9.375 33.107C9.6875 33.2782 10.0625 33.4779 10.3125 33.6776L10.625 33.9058C10.7188 34.0199 10.875 34.1341 11 34.1911L11.125 34.3052C11.3438 34.4764 11.5 34.7046 11.5625 34.9614L11.875 36.2451C11.875 36.5875 12.1875 36.8728 12.5 36.9583L13 37.101C13 37.101 13.0938 37.101 13.1562 37.158L13.7812 37.3292C14.2812 37.4719 14.7188 37.7286 15.0938 38.0709C15.4688 38.3562 15.8438 38.7271 16.1562 39.1265L16.2812 39.2406C16.5312 39.5259 16.9062 39.6685 17.2812 39.5829C17.6562 39.4974 18.0625 39.4688 18.4688 39.4688H18.9375C19.25 39.4688 19.6562 39.5544 20 39.7541C20.3125 39.9253 20.7188 40.0394 21.0938 40.182H21.1875C21.5625 40.3247 21.9688 40.2676 22.2812 40.0679C22.5938 39.8397 23 39.7256 23.4062 39.7256L24.875 39.8112C25.1875 39.8112 25.5 39.7541 25.6562 39.5259H25.7188L26.25 39.0694L26.4062 38.9268C26.6562 38.6415 27.0312 38.5274 27.4062 38.4989H28.8125C29.1875 38.4989 29.5312 38.2136 29.6875 37.9283C29.8438 37.643 30.1562 37.4148 30.5312 37.3577L31.1562 37.2436C31.4062 37.2436 31.625 37.0439 31.7188 36.7872C31.8125 36.5019 31.9688 36.2737 32.1875 36.1025L32.6875 35.646C33 35.3608 33.1562 35.0755 33.2188 34.7331L33.1562 34.7617Z" fill="#F0F0F0"/>
</svg>
