<svg width="58" height="62" viewBox="0 0 58 62" fill="none" xmlns="http://www.w3.org/2000/svg">
<path d="M58 30.7865C58 47.7895 45.0163 61.5731 29 61.5731C12.9837 61.5731 0 47.7895 0 30.7865C0 13.7836 12.9837 0 29 0C45.0163 0 58 13.7836 58 30.7865ZM30.0394 22.7281C27.2187 23.9736 21.5813 26.5515 13.1272 30.4617C11.7544 31.0412 11.0353 31.6082 10.9698 32.1626C10.8592 33.0995 11.9644 33.4684 13.4694 33.9708C13.6741 34.0391 13.8862 34.1099 14.1037 34.185C15.5844 34.6959 17.5761 35.2937 18.6116 35.3175C19.5508 35.339 20.5992 34.9279 21.7565 34.0842C29.6554 28.4238 33.7329 25.5627 33.9889 25.5011C34.1695 25.4575 34.4198 25.4028 34.5893 25.5628C34.7589 25.7228 34.7422 26.0258 34.7243 26.1071C34.6148 26.6026 30.2765 30.8844 28.0314 33.1002C27.3315 33.791 26.835 34.281 26.7335 34.3929C26.5062 34.6435 26.2745 34.8807 26.0518 35.1086C24.6762 36.5163 23.6446 37.572 26.1089 39.296C27.2931 40.1245 28.2407 40.8096 29.1861 41.493C30.2186 42.2394 31.2483 42.9839 32.5807 43.9111C32.9202 44.1473 33.2444 44.3927 33.5601 44.6316C34.7617 45.541 35.8411 46.358 37.1747 46.2277C37.9496 46.152 38.7501 45.3784 39.1566 43.0714C40.1173 37.619 42.0057 25.8055 42.4422 20.9375C42.4804 20.511 42.4323 19.9651 42.3937 19.7255C42.355 19.4859 42.2743 19.1445 41.9809 18.8918C41.6335 18.5925 41.0971 18.5294 40.8572 18.5339C39.7664 18.5543 38.093 19.172 30.0394 22.7281Z" fill="#F0F0F0"/>
</svg>
